<svg width="307" height="233" viewBox="0 0 307 233" fill="none" xmlns="http://www.w3.org/2000/svg">
<path d="M265 115.5C265 115.5 250.068 148.107 240.5 169C234.227 182.698 225.649 201.43 220.484 212.708C217.536 219.146 213.11 224.795 207.565 229.198V229.198C202.662 233.092 195.634 232.754 191.127 228.408L190.246 227.558C188.065 225.455 189.194 221.766 192.178 221.244L205 219M216 194L305.981 5.46883C307.28 2.74643 304.2 0.024487 301.658 1.6485L7.08038 189.838C2.20865 192.95 -0.253281 198.734 0.880469 204.402V204.402C1.7926 208.963 6.07767 212.041 10.6908 211.448L76.5 203L150.5 188L212 171.5L268.733 152.211C274.941 150.1 280.398 156.893 277 162.5V162.5" stroke="black"/>
</svg>
